<?xml version="1.0" standalone="no"?>
<!DOCTYPE svg PUBLIC "-//W3C//DTD SVG 20010904//EN"
 "http://www.w3.org/TR/2001/REC-SVG-20010904/DTD/svg10.dtd">
<svg version="1.0" xmlns="http://www.w3.org/2000/svg"
 width="512.000000pt" height="512.000000pt" viewBox="0 0 512.000000 512.000000"
 preserveAspectRatio="xMidYMid meet">

<g transform="translate(0.000000,512.000000) scale(0.100000,-0.100000)"
fill="#000000" stroke="none">
<path d="M2188 5099 c-59 -30 -78 -79 -78 -193 l0 -95 -47 -6 c-219 -31 -467
-140 -648 -284 -197 -158 -365 -404 -441 -645 l-27 -88 -351 351 c-353 353
-387 381 -454 381 -34 0 -86 -33 -116 -73 -46 -62 -43 -70 278 -857 163 -398
296 -730 296 -736 0 -7 -135 -615 -300 -1350 -165 -736 -300 -1348 -300 -1361
0 -43 38 -102 80 -123 38 -19 58 -20 526 -20 477 0 487 0 524 21 66 37 74 65
105 349 15 140 29 256 30 258 2 2 40 -22 86 -52 202 -136 447 -227 706 -261
161 -21 845 -21 1006 0 259 34 504 125 706 261 46 30 84 54 86 52 1 -2 15
-118 30 -258 31 -284 39 -312 105 -349 37 -21 47 -21 524 -21 468 0 488 1 526
20 42 21 80 80 80 123 0 13 -135 625 -300 1361 -165 735 -300 1343 -300 1350
0 6 133 338 296 736 321 787 324 795 278 857 -30 40 -82 73 -116 73 -67 0
-101 -28 -454 -381 l-351 -351 -27 88 c-117 375 -420 703 -779 843 -104 40
-225 74 -309 86 l-48 6 0 95 c0 116 -19 163 -80 194 -37 19 -58 20 -372 20
-312 -1 -335 -2 -370 -21z m522 -879 l0 -600 -150 0 -150 0 0 600 0 600 150 0
150 0 0 -600z m-600 -155 l0 -445 -444 0 -445 0 6 38 c18 120 97 303 180 421
158 222 431 391 696 430 4 1 7 -199 7 -444z m1055 408 c276 -85 505 -280 634
-539 40 -81 84 -209 94 -276 l6 -38 -445 0 -444 0 0 444 0 445 38 -6 c20 -3
73 -17 117 -30z m-2168 -1137 c29 -14 180 -16 1563 -16 1383 0 1534 2 1563 16
18 9 121 104 230 212 108 108 197 195 197 192 0 -3 -65 -165 -144 -360 l-145
-355 -1701 0 -1701 0 -145 355 c-79 195 -144 357 -144 360 0 3 89 -84 198
-192 108 -108 211 -203 229 -212z m191 -658 c-3 -24 -63 -568 -134 -1210
l-128 -1168 -293 0 c-161 0 -293 2 -293 6 0 6 529 2372 536 2397 5 15 21 17
161 17 l156 0 -5 -42z m2485 -390 c26 -238 47 -441 47 -450 0 -17 -19 -18
-249 -18 l-249 0 -54 46 c-122 105 -268 184 -414 226 -111 31 -277 31 -388 0
-146 -42 -292 -121 -414 -226 l-54 -46 -249 0 c-230 0 -249 1 -249 18 0 9 21
212 47 450 l47 432 1066 0 1066 0 47 -432z m571 415 c7 -25 536 -2391 536
-2397 0 -4 -132 -6 -293 -6 l-293 0 -128 1168 c-71 642 -131 1186 -134 1210
l-5 42 156 0 c140 0 156 -2 161 -17z m-1579 -898 c120 -31 234 -97 340 -196
99 -93 80 -89 438 -89 l314 0 11 -97 c6 -54 19 -171 29 -260 l17 -163 -29 -31
c-40 -41 -165 -136 -240 -181 -144 -87 -349 -155 -530 -177 -117 -14 -793 -14
-910 0 -181 22 -386 90 -530 177 -75 45 -200 140 -239 181 l-30 31 23 218 c12
119 25 236 28 260 l6 42 314 0 c358 0 339 -4 438 89 182 169 380 240 550 196z"/>
</g>
</svg>
