<?xml version="1.0" standalone="no"?>
<!DOCTYPE svg PUBLIC "-//W3C//DTD SVG 20010904//EN"
 "http://www.w3.org/TR/2001/REC-SVG-20010904/DTD/svg10.dtd">
<svg version="1.0" xmlns="http://www.w3.org/2000/svg"
 width="512.000000pt" height="511.000000pt" viewBox="0 0 512.000000 511.000000"
 preserveAspectRatio="xMidYMid meet">

<g transform="translate(0.000000,511.000000) scale(0.100000,-0.100000)"
fill="#000000" stroke="none">
<path d="M2381 5100 c-46 -11 -83 -40 -103 -81 -16 -31 -18 -80 -18 -581 l0
-548 300 0 300 0 -2 559 c-3 551 -3 560 -24 588 -45 60 -73 68 -254 70 -91 1
-180 -2 -199 -7z"/>
<path d="M1890 4738 c-330 -99 -600 -308 -778 -599 l-40 -66 92 -92 91 -91
353 0 352 0 0 435 c0 239 -1 435 -2 434 -2 0 -32 -10 -68 -21z"/>
<path d="M3160 4324 l0 -434 352 0 353 0 91 91 92 92 -40 66 c-178 291 -448
500 -770 596 l-78 23 0 -434z"/>
<path d="M69 4467 c-47 -31 -71 -81 -65 -134 4 -29 106 -239 317 -655 171
-337 319 -621 328 -632 9 -10 29 -25 46 -35 28 -15 180 -16 1865 -16 1685 0
1837 1 1865 16 17 10 37 25 46 35 9 11 157 295 328 632 211 416 313 626 317
655 14 114 -122 200 -221 138 -16 -10 -224 -210 -462 -445 l-431 -426 -1442 0
-1442 0 -438 432 c-241 237 -448 437 -461 444 -39 22 -111 17 -150 -9z"/>
<path d="M571 2678 c-4 -13 -135 -589 -291 -1280 -224 -996 -281 -1265 -275
-1294 4 -23 20 -51 40 -71 l33 -33 377 0 378 0 32 34 c18 19 35 45 38 58 7 26
287 2554 287 2587 0 21 -1 21 -305 21 l-305 0 -9 -22z"/>
<path d="M1496 2678 c-6 -28 -96 -845 -96 -870 0 -17 18 -18 244 -18 l244 0
53 43 c87 70 98 78 180 128 147 88 286 129 439 129 153 0 292 -41 439 -129 82
-50 93 -58 180 -128 l53 -43 244 0 c226 0 244 1 244 18 0 25 -90 842 -96 870
l-4 22 -1060 0 -1060 0 -4 -22z"/>
<path d="M3930 2679 c0 -33 280 -2561 287 -2587 3 -13 20 -39 38 -58 l32 -34
378 0 377 0 33 33 c20 20 36 48 40 71 6 29 -52 299 -275 1294 -156 691 -287
1267 -291 1280 l-9 22 -305 0 c-304 0 -305 0 -305 -21z"/>
<path d="M2420 1771 c-105 -34 -223 -107 -329 -206 -25 -23 -56 -47 -68 -54
-15 -7 -121 -11 -338 -11 -243 0 -317 -3 -320 -12 -6 -16 -95 -809 -95 -840 0
-16 15 -33 53 -58 142 -95 297 -171 437 -215 208 -65 392 -85 800 -85 408 0
592 20 800 85 140 44 295 120 437 215 38 25 53 42 53 58 0 31 -89 824 -95 840
-3 9 -77 12 -320 12 -217 0 -323 4 -338 11 -12 7 -43 31 -68 54 -110 102 -234
178 -341 209 -73 21 -197 19 -268 -3z"/>
</g>
</svg>
